<svg width="48" height="48" viewBox="0 0 48 48" fill="none" xmlns="http://www.w3.org/2000/svg">
<path d="M48 22.3125C48 23.375 48 24.4375 48 25.5C47.8747 26.171 47.7251 26.8386 47.6279 27.5136C46.1983 37.439 38.3737 45.6081 28.5375 47.4118C27.2208 47.6533 25.8879 47.8061 24.5625 48C24.1875 48 23.8125 48 23.4375 48C22.5742 47.8784 21.711 47.7563 20.8476 47.6352C10.4767 46.1811 2.51383 38.6277 0.509914 28.3423C0.337598 27.4578 0.169859 26.5724 0 25.6875C0 24.5625 0 23.4375 0 22.3125C0.126428 21.674 0.279054 21.0395 0.375347 20.3965C1.85809 10.4957 9.47166 2.50762 19.2851 0.570184C20.2925 0.371296 21.3033 0.189642 22.3125 0C23.4375 0 24.5625 0 25.6875 0C26.2973 0.122228 26.9035 0.267183 27.5174 0.363308C37.4083 1.91214 45.0659 9.01189 47.3107 18.7437C47.5828 19.9235 47.7722 21.1224 48 22.3125ZM23.8885 46.4488C24.9461 45.3445 25.8667 44.2535 26.9231 43.3152C28.0643 42.3015 29.5462 42.2335 31.0871 42.3099C29.3045 40.685 28.6437 38.7618 28.6877 36.5159C28.7329 34.2126 29.5521 32.3421 31.4774 31.1651C30.9323 30.3389 30.3458 29.6698 30.0044 28.8929C28.7447 26.0256 28.0842 23.0278 28.2936 19.8704C28.339 19.1863 28.356 18.4944 28.3091 17.8113C28.2356 16.7408 27.3747 15.7081 26.4921 15.5419C25.7108 15.3948 24.9227 15.978 24.3963 17.0781C24.3084 17.2617 24.1766 17.4243 23.9656 17.7505C23.7682 17.3599 23.6319 17.0998 23.5044 16.8356C23.1563 16.1142 22.6207 15.5828 21.8052 15.537C21.0079 15.4921 20.3555 15.984 20.1173 16.6661C19.8291 17.4915 19.6684 18.4163 19.7 19.2891C19.8545 23.5579 19.248 27.5982 16.6097 31.0622C20.4191 34.623 20.1309 38.3865 16.9283 42.4431C20.4993 41.8534 22.2849 44.0799 23.8885 46.4488ZM17.8063 8.86823C17.459 8.85124 16.9615 8.79249 16.4665 8.80897C14.7868 8.86489 13.601 10.0382 13.5005 11.7112C13.3467 14.2674 15.4931 15.7267 18.1037 14.82C18.721 14.6056 19.3206 14.3296 19.9064 14.0379C21.164 13.4117 22.2098 13.7823 23.1322 14.698C23.4116 14.9754 23.6142 15.3301 23.9958 15.8426C24.2966 15.4013 24.4137 15.1776 24.5779 14.9966C25.7901 13.661 26.6405 13.4732 28.3153 14.1264C29.126 14.4426 29.9249 14.851 30.7683 15.0087C32.6125 15.3536 33.9792 14.4872 34.3836 12.8666C34.9729 10.5048 33.4481 8.66962 31.013 8.80983C30.6501 8.83072 30.2872 8.85105 29.9763 8.86868C28.8027 6.56296 27.1328 5.31715 24.5345 5.63806C24.0734 5.69501 23.5837 5.71761 23.1332 5.6269C21.7714 5.35269 20.6509 5.87852 19.6849 6.70659C19.0192 7.27733 18.5154 8.03712 17.8063 8.86823ZM10.453 37.9601C10.9568 38.9672 11.3059 39.9594 11.8973 40.7764C12.7364 41.9356 13.9941 42.5485 15.4246 42.2255C16.7788 41.9197 17.4723 40.8027 17.6935 39.5031C18.0172 37.6001 17.7444 35.7618 16.681 34.1013C15.7926 32.7141 14.3155 32.1247 12.7071 32.4834C12.4992 32.5298 12.2878 32.5606 12.0422 32.6051C11.924 32.3917 11.8015 32.2145 11.7222 32.0198C11.353 31.1129 10.6757 30.6064 9.70914 30.6031C8.68211 30.5996 7.90918 31.1361 7.4591 32.0367C6.24723 34.4617 7.84454 37.5612 10.453 37.9601ZM35.9601 32.6158C35.6737 32.5558 35.4075 32.4951 35.1394 32.4448C34.0335 32.2374 33.025 32.469 32.1476 33.1715C30.2487 34.6917 29.5517 38.7639 30.8187 40.8529C31.6222 42.1776 32.8111 42.6005 34.2693 42.0953C35.6841 41.6051 36.4949 40.5537 36.9931 39.2043C37.1418 38.8017 37.2876 38.3982 37.4406 37.9791C38.5412 37.903 39.489 37.5526 40.0501 36.646C40.8759 35.3116 41.0393 33.8252 40.647 32.3179C40.3997 31.3677 39.3446 30.6019 38.4102 30.6006C37.3659 30.5992 36.6318 31.0879 36.2533 32.0824C36.1891 32.251 36.0791 32.4023 35.9601 32.6158ZM33.6885 16.1527C32.8189 17.2261 32.8039 18.2653 32.9491 19.2707C33.3697 22.1809 34.4131 24.8876 35.992 27.3556C36.954 28.8595 38.4304 29.7446 40.1764 30.1441C41.8971 30.5377 43.3887 29.5072 43.6368 27.7651C43.9566 25.5203 42.7239 23.8738 40.3671 23.6901C36.7822 23.4107 33.8752 19.8954 33.8632 17.0128C33.8623 16.8067 33.7824 16.6009 33.6885 16.1527ZM14.53 16.312C14.4467 16.3336 14.3635 16.3552 14.2802 16.3769C14.234 16.5497 14.1671 16.7198 14.1446 16.8956C13.6462 20.7942 11.3155 23.1692 7.47022 23.69C5.23472 23.9928 4.0188 25.6222 4.37952 27.8316C4.65694 29.5308 6.12215 30.5331 7.80023 30.1477C10.1178 29.6153 11.7894 28.2299 12.7709 26.0985C13.5003 24.5145 14.1687 22.8849 14.6615 21.2157C14.981 20.1333 15.0016 18.9444 15.023 17.8006C15.0323 17.3077 14.7046 16.8084 14.53 16.312ZM41.0721 15.2549C41.0721 15.0213 41.1222 14.7801 41.0645 14.5682C40.3898 12.0953 39.257 9.8619 37.5047 7.97312C37.2594 7.70864 36.8926 7.55682 36.4145 7.24279C36.2887 7.82751 36.1508 8.1752 36.1494 8.52345C36.1411 10.4629 38.9402 14.5438 40.7717 15.3014C40.7961 15.3116 40.8323 15.2934 41.0721 15.2549ZM7.01242 15.1951C7.16673 15.213 7.26777 15.2546 7.34406 15.2272C7.48751 15.1757 7.6323 15.1034 7.74946 15.0069C9.46354 13.5947 10.733 11.83 11.6312 9.82347C11.9606 9.08742 12.0274 8.21728 11.4848 7.46525C9.6826 8.16477 6.95419 12.9087 7.01242 15.1951ZM40.3115 22.4648C41.9861 22.1721 42.8797 21.3611 42.967 20.099C43.0757 18.5268 42.6375 17.6421 41.5723 17.2832C39.9235 18.0199 39.1729 21.0124 40.3115 22.4648ZM7.63888 22.4797C8.49399 21.5161 8.36364 19.2093 7.42381 17.9995C6.62003 16.9648 5.67337 17.059 5.27989 18.3096C4.61131 20.4347 4.99178 21.8469 7.63888 22.4797Z" fill="#A49E8A"/>
</svg>
